<mxfile host="app.diagrams.net" modified="2024-03-07T00:27:20.263Z" agent="Mozilla/5.0 (Windows NT 10.0; Win64; x64) AppleWebKit/537.36 (KHTML, like Gecko) Chrome/122.0.0.0 Safari/537.36 Edg/122.0.0.0" etag="EzNsJNBPdOWQaoqpE3Yl" version="24.0.2" type="github">
  <diagram name="Página-1" id="SRPa01eLbwMzZtkVysjA">
    <mxGraphModel dx="1386" dy="793" grid="1" gridSize="10" guides="1" tooltips="1" connect="1" arrows="1" fold="1" page="1" pageScale="1" pageWidth="4681" pageHeight="3300" math="0" shadow="0">
      <root>
        <mxCell id="0" />
        <mxCell id="1" parent="0" />
        <mxCell id="ZM6D0XeaFgW-7zV3yJDG-43" value="" style="edgeStyle=orthogonalEdgeStyle;rounded=0;orthogonalLoop=1;jettySize=auto;html=1;startArrow=ERmany;startFill=0;endArrow=open;endFill=0;" edge="1" parent="1" target="ZM6D0XeaFgW-7zV3yJDG-42">
          <mxGeometry relative="1" as="geometry">
            <mxPoint x="2920.0270270270266" y="1230" as="sourcePoint" />
            <Array as="points">
              <mxPoint x="2920" y="805" />
            </Array>
          </mxGeometry>
        </mxCell>
        <mxCell id="ZM6D0XeaFgW-7zV3yJDG-49" style="edgeStyle=orthogonalEdgeStyle;rounded=0;orthogonalLoop=1;jettySize=auto;html=1;entryX=1;entryY=0.5;entryDx=0;entryDy=0;startArrow=ERmany;startFill=0;endArrow=open;endFill=0;" edge="1" parent="1" target="ZM6D0XeaFgW-7zV3yJDG-46">
          <mxGeometry relative="1" as="geometry">
            <mxPoint x="2920.0270270270266" y="1230" as="sourcePoint" />
            <Array as="points">
              <mxPoint x="2920" y="905" />
            </Array>
          </mxGeometry>
        </mxCell>
        <mxCell id="ZM6D0XeaFgW-7zV3yJDG-52" value="" style="edgeStyle=orthogonalEdgeStyle;rounded=0;orthogonalLoop=1;jettySize=auto;html=1;exitX=0.75;exitY=0;exitDx=0;exitDy=0;startArrow=ERmany;startFill=0;endArrow=none;endFill=0;" edge="1" parent="1" source="ZM6D0XeaFgW-7zV3yJDG-5" target="ZM6D0XeaFgW-7zV3yJDG-51">
          <mxGeometry relative="1" as="geometry">
            <Array as="points">
              <mxPoint x="2965" y="1130" />
              <mxPoint x="3070" y="1130" />
            </Array>
          </mxGeometry>
        </mxCell>
        <mxCell id="ZM6D0XeaFgW-7zV3yJDG-5" value="Cidade" style="rounded=1;arcSize=10;whiteSpace=wrap;html=1;align=center;" vertex="1" parent="1">
          <mxGeometry x="2890" y="1230" width="100" height="40" as="geometry" />
        </mxCell>
        <mxCell id="ZM6D0XeaFgW-7zV3yJDG-10" value="" style="edgeStyle=orthogonalEdgeStyle;rounded=0;orthogonalLoop=1;jettySize=auto;html=1;endArrow=ERmany;endFill=0;exitX=1;exitY=0.5;exitDx=0;exitDy=0;" edge="1" parent="1" source="ZM6D0XeaFgW-7zV3yJDG-55" target="ZM6D0XeaFgW-7zV3yJDG-9">
          <mxGeometry relative="1" as="geometry">
            <mxPoint x="3250.000000000001" y="1250" as="sourcePoint" />
            <Array as="points">
              <mxPoint x="3040" y="1418" />
              <mxPoint x="3040" y="1380" />
            </Array>
          </mxGeometry>
        </mxCell>
        <mxCell id="ZM6D0XeaFgW-7zV3yJDG-12" value="" style="edgeStyle=orthogonalEdgeStyle;rounded=0;orthogonalLoop=1;jettySize=auto;html=1;startArrow=ERmany;startFill=0;endArrow=ERmany;endFill=0;" edge="1" parent="1" source="ZM6D0XeaFgW-7zV3yJDG-9" target="ZM6D0XeaFgW-7zV3yJDG-11">
          <mxGeometry relative="1" as="geometry" />
        </mxCell>
        <mxCell id="ZM6D0XeaFgW-7zV3yJDG-18" value="" style="edgeStyle=orthogonalEdgeStyle;rounded=0;orthogonalLoop=1;jettySize=auto;html=1;startArrow=ERmany;startFill=0;endArrow=open;endFill=0;" edge="1" parent="1" source="ZM6D0XeaFgW-7zV3yJDG-9" target="ZM6D0XeaFgW-7zV3yJDG-17">
          <mxGeometry relative="1" as="geometry" />
        </mxCell>
        <mxCell id="ZM6D0XeaFgW-7zV3yJDG-20" value="" style="edgeStyle=orthogonalEdgeStyle;rounded=0;orthogonalLoop=1;jettySize=auto;html=1;startArrow=ERmany;startFill=0;endArrow=open;endFill=0;" edge="1" parent="1" source="ZM6D0XeaFgW-7zV3yJDG-9" target="ZM6D0XeaFgW-7zV3yJDG-19">
          <mxGeometry relative="1" as="geometry" />
        </mxCell>
        <mxCell id="ZM6D0XeaFgW-7zV3yJDG-22" value="" style="edgeStyle=orthogonalEdgeStyle;rounded=0;orthogonalLoop=1;jettySize=auto;html=1;startArrow=ERmany;startFill=0;endArrow=open;endFill=0;" edge="1" parent="1" source="ZM6D0XeaFgW-7zV3yJDG-9" target="ZM6D0XeaFgW-7zV3yJDG-21">
          <mxGeometry relative="1" as="geometry" />
        </mxCell>
        <mxCell id="ZM6D0XeaFgW-7zV3yJDG-27" value="" style="edgeStyle=orthogonalEdgeStyle;rounded=0;orthogonalLoop=1;jettySize=auto;html=1;startArrow=ERmany;startFill=0;endArrow=none;endFill=0;" edge="1" parent="1" source="ZM6D0XeaFgW-7zV3yJDG-9" target="ZM6D0XeaFgW-7zV3yJDG-26">
          <mxGeometry relative="1" as="geometry" />
        </mxCell>
        <mxCell id="ZM6D0XeaFgW-7zV3yJDG-9" value="hotel" style="whiteSpace=wrap;html=1;rounded=1;arcSize=10;" vertex="1" parent="1">
          <mxGeometry x="3481" y="1370" width="120" height="60" as="geometry" />
        </mxCell>
        <mxCell id="ZM6D0XeaFgW-7zV3yJDG-11" value="categoria do hotel" style="ellipse;whiteSpace=wrap;html=1;rounded=1;arcSize=10;" vertex="1" parent="1">
          <mxGeometry x="3481" y="1220" width="120" height="50" as="geometry" />
        </mxCell>
        <mxCell id="ZM6D0XeaFgW-7zV3yJDG-17" value="Codigo do hotel" style="ellipse;whiteSpace=wrap;html=1;rounded=1;arcSize=10;" vertex="1" parent="1">
          <mxGeometry x="3481" y="1720" width="120" height="50" as="geometry" />
        </mxCell>
        <mxCell id="ZM6D0XeaFgW-7zV3yJDG-19" value="nome do hotel" style="ellipse;whiteSpace=wrap;html=1;rounded=1;arcSize=10;" vertex="1" parent="1">
          <mxGeometry x="3601" y="1670" width="120" height="50" as="geometry" />
        </mxCell>
        <mxCell id="ZM6D0XeaFgW-7zV3yJDG-21" value="endereço do hotel" style="ellipse;whiteSpace=wrap;html=1;rounded=1;arcSize=10;" vertex="1" parent="1">
          <mxGeometry x="3360" y="1670" width="125" height="50" as="geometry" />
        </mxCell>
        <mxCell id="ZM6D0XeaFgW-7zV3yJDG-36" value="" style="edgeStyle=orthogonalEdgeStyle;rounded=0;orthogonalLoop=1;jettySize=auto;html=1;endArrow=ERmany;endFill=0;" edge="1" parent="1" source="ZM6D0XeaFgW-7zV3yJDG-26" target="ZM6D0XeaFgW-7zV3yJDG-35">
          <mxGeometry relative="1" as="geometry" />
        </mxCell>
        <mxCell id="ZM6D0XeaFgW-7zV3yJDG-26" value="Possui" style="rhombus;whiteSpace=wrap;html=1;rounded=1;arcSize=10;" vertex="1" parent="1">
          <mxGeometry x="3690" y="1360" width="80" height="80" as="geometry" />
        </mxCell>
        <mxCell id="ZM6D0XeaFgW-7zV3yJDG-28" value="Numero do Quarto" style="ellipse;whiteSpace=wrap;html=1;rounded=1;arcSize=10;" vertex="1" parent="1">
          <mxGeometry x="4010" y="1260" width="120" height="50" as="geometry" />
        </mxCell>
        <mxCell id="ZM6D0XeaFgW-7zV3yJDG-30" value="valor do quarto" style="ellipse;whiteSpace=wrap;html=1;rounded=1;arcSize=10;" vertex="1" parent="1">
          <mxGeometry x="4240" y="1505" width="120" height="50" as="geometry" />
        </mxCell>
        <mxCell id="ZM6D0XeaFgW-7zV3yJDG-31" value="Tipo de quarto" style="ellipse;whiteSpace=wrap;html=1;rounded=1;arcSize=10;" vertex="1" parent="1">
          <mxGeometry x="4010" y="1505" width="120" height="50" as="geometry" />
        </mxCell>
        <mxCell id="ZM6D0XeaFgW-7zV3yJDG-37" style="edgeStyle=orthogonalEdgeStyle;rounded=0;orthogonalLoop=1;jettySize=auto;html=1;entryX=0;entryY=0.5;entryDx=0;entryDy=0;endArrow=open;endFill=0;" edge="1" parent="1" source="ZM6D0XeaFgW-7zV3yJDG-35" target="ZM6D0XeaFgW-7zV3yJDG-31">
          <mxGeometry relative="1" as="geometry" />
        </mxCell>
        <mxCell id="ZM6D0XeaFgW-7zV3yJDG-38" style="edgeStyle=orthogonalEdgeStyle;rounded=0;orthogonalLoop=1;jettySize=auto;html=1;entryX=0;entryY=0.5;entryDx=0;entryDy=0;startArrow=ERmany;startFill=0;endArrow=open;endFill=0;" edge="1" parent="1" source="ZM6D0XeaFgW-7zV3yJDG-35" target="ZM6D0XeaFgW-7zV3yJDG-28">
          <mxGeometry relative="1" as="geometry" />
        </mxCell>
        <mxCell id="ZM6D0XeaFgW-7zV3yJDG-39" style="edgeStyle=orthogonalEdgeStyle;rounded=0;orthogonalLoop=1;jettySize=auto;html=1;entryX=0;entryY=0.5;entryDx=0;entryDy=0;exitX=1;exitY=0.5;exitDx=0;exitDy=0;startArrow=ERmany;startFill=0;endArrow=open;endFill=0;" edge="1" parent="1" source="ZM6D0XeaFgW-7zV3yJDG-31" target="ZM6D0XeaFgW-7zV3yJDG-30">
          <mxGeometry relative="1" as="geometry" />
        </mxCell>
        <mxCell id="ZM6D0XeaFgW-7zV3yJDG-35" value="quarto" style="whiteSpace=wrap;html=1;rounded=1;arcSize=10;" vertex="1" parent="1">
          <mxGeometry x="3830" y="1370" width="120" height="60" as="geometry" />
        </mxCell>
        <mxCell id="ZM6D0XeaFgW-7zV3yJDG-42" value="populaçao" style="ellipse;whiteSpace=wrap;html=1;rounded=1;arcSize=10;" vertex="1" parent="1">
          <mxGeometry x="2750" y="780" width="120" height="50" as="geometry" />
        </mxCell>
        <mxCell id="ZM6D0XeaFgW-7zV3yJDG-46" value="estado" style="ellipse;whiteSpace=wrap;html=1;rounded=1;arcSize=10;" vertex="1" parent="1">
          <mxGeometry x="2750" y="880" width="120" height="50" as="geometry" />
        </mxCell>
        <mxCell id="ZM6D0XeaFgW-7zV3yJDG-48" value="" style="edgeStyle=orthogonalEdgeStyle;rounded=0;orthogonalLoop=1;jettySize=auto;html=1;startArrow=ERmany;startFill=0;endArrow=open;endFill=0;" edge="1" parent="1" target="ZM6D0XeaFgW-7zV3yJDG-47">
          <mxGeometry relative="1" as="geometry">
            <mxPoint x="2920.0270270270266" y="1230" as="sourcePoint" />
            <mxPoint x="2809.9999999999995" y="1090" as="targetPoint" />
            <Array as="points">
              <mxPoint x="2920" y="995" />
            </Array>
          </mxGeometry>
        </mxCell>
        <mxCell id="ZM6D0XeaFgW-7zV3yJDG-47" value="nome da cidade" style="ellipse;whiteSpace=wrap;html=1;rounded=1;arcSize=10;" vertex="1" parent="1">
          <mxGeometry x="2750" y="970" width="120" height="50" as="geometry" />
        </mxCell>
        <mxCell id="ZM6D0XeaFgW-7zV3yJDG-54" value="" style="edgeStyle=orthogonalEdgeStyle;rounded=0;orthogonalLoop=1;jettySize=auto;html=1;endArrow=open;endFill=0;" edge="1" parent="1" source="ZM6D0XeaFgW-7zV3yJDG-51" target="ZM6D0XeaFgW-7zV3yJDG-53">
          <mxGeometry relative="1" as="geometry" />
        </mxCell>
        <mxCell id="ZM6D0XeaFgW-7zV3yJDG-51" value="recebem" style="rhombus;whiteSpace=wrap;html=1;rounded=1;arcSize=10;" vertex="1" parent="1">
          <mxGeometry x="3030" y="870" width="80" height="80" as="geometry" />
        </mxCell>
        <mxCell id="ZM6D0XeaFgW-7zV3yJDG-53" value="codigo da cidade" style="ellipse;whiteSpace=wrap;html=1;rounded=1;arcSize=10;" vertex="1" parent="1">
          <mxGeometry x="3010" y="740" width="120" height="50" as="geometry" />
        </mxCell>
        <mxCell id="ZM6D0XeaFgW-7zV3yJDG-58" value="" style="edgeStyle=orthogonalEdgeStyle;rounded=0;orthogonalLoop=1;jettySize=auto;html=1;endArrow=ERmany;endFill=0;" edge="1" parent="1" source="ZM6D0XeaFgW-7zV3yJDG-55" target="ZM6D0XeaFgW-7zV3yJDG-57">
          <mxGeometry relative="1" as="geometry">
            <Array as="points">
              <mxPoint x="2940" y="1890" />
              <mxPoint x="3440" y="1890" />
              <mxPoint x="3440" y="2030" />
            </Array>
          </mxGeometry>
        </mxCell>
        <mxCell id="ZM6D0XeaFgW-7zV3yJDG-102" style="edgeStyle=orthogonalEdgeStyle;rounded=0;orthogonalLoop=1;jettySize=auto;html=1;endArrow=ERmany;endFill=0;exitX=0.5;exitY=1;exitDx=0;exitDy=0;entryX=0;entryY=0.25;entryDx=0;entryDy=0;" edge="1" parent="1" source="ZM6D0XeaFgW-7zV3yJDG-55" target="ZM6D0XeaFgW-7zV3yJDG-170">
          <mxGeometry relative="1" as="geometry">
            <mxPoint x="3000" y="2150" as="targetPoint" />
            <mxPoint x="3230.034285714286" y="1960.034285714286" as="sourcePoint" />
            <Array as="points">
              <mxPoint x="2940" y="2174" />
            </Array>
          </mxGeometry>
        </mxCell>
        <mxCell id="ZM6D0XeaFgW-7zV3yJDG-122" value="" style="edgeStyle=orthogonalEdgeStyle;rounded=0;orthogonalLoop=1;jettySize=auto;html=1;endArrow=ERmany;endFill=0;entryX=1;entryY=0.5;entryDx=0;entryDy=0;" edge="1" parent="1" source="ZM6D0XeaFgW-7zV3yJDG-55" target="ZM6D0XeaFgW-7zV3yJDG-124">
          <mxGeometry relative="1" as="geometry">
            <mxPoint x="2450" y="1770" as="targetPoint" />
            <Array as="points">
              <mxPoint x="2620" y="1418" />
              <mxPoint x="2620" y="1770" />
              <mxPoint x="2510" y="1770" />
              <mxPoint x="2510" y="1768" />
            </Array>
          </mxGeometry>
        </mxCell>
        <mxCell id="ZM6D0XeaFgW-7zV3yJDG-55" value="possui" style="rhombus;whiteSpace=wrap;html=1;rounded=1;arcSize=10;" vertex="1" parent="1">
          <mxGeometry x="2900" y="1377.68" width="80" height="80" as="geometry" />
        </mxCell>
        <mxCell id="ZM6D0XeaFgW-7zV3yJDG-64" style="edgeStyle=orthogonalEdgeStyle;rounded=0;orthogonalLoop=1;jettySize=auto;html=1;entryX=0;entryY=0.5;entryDx=0;entryDy=0;startArrow=open;startFill=0;endArrow=none;endFill=0;" edge="1" parent="1" source="ZM6D0XeaFgW-7zV3yJDG-57" target="ZM6D0XeaFgW-7zV3yJDG-63">
          <mxGeometry relative="1" as="geometry">
            <Array as="points">
              <mxPoint x="3590" y="1840" />
              <mxPoint x="3170" y="1840" />
              <mxPoint x="3170" y="1538" />
            </Array>
          </mxGeometry>
        </mxCell>
        <mxCell id="ZM6D0XeaFgW-7zV3yJDG-67" value="" style="edgeStyle=orthogonalEdgeStyle;rounded=0;orthogonalLoop=1;jettySize=auto;html=1;endArrow=open;endFill=0;startArrow=ERmany;startFill=0;" edge="1" parent="1" source="ZM6D0XeaFgW-7zV3yJDG-57" target="ZM6D0XeaFgW-7zV3yJDG-66">
          <mxGeometry relative="1" as="geometry">
            <Array as="points">
              <mxPoint x="3580" y="2307.32" />
            </Array>
          </mxGeometry>
        </mxCell>
        <mxCell id="ZM6D0XeaFgW-7zV3yJDG-73" style="edgeStyle=orthogonalEdgeStyle;rounded=0;orthogonalLoop=1;jettySize=auto;html=1;entryX=0;entryY=0.5;entryDx=0;entryDy=0;startArrow=ERmany;startFill=0;endArrow=open;endFill=0;" edge="1" parent="1" source="ZM6D0XeaFgW-7zV3yJDG-57" target="ZM6D0XeaFgW-7zV3yJDG-69">
          <mxGeometry relative="1" as="geometry">
            <Array as="points">
              <mxPoint x="3580" y="2307.32" />
            </Array>
          </mxGeometry>
        </mxCell>
        <mxCell id="ZM6D0XeaFgW-7zV3yJDG-74" style="edgeStyle=orthogonalEdgeStyle;rounded=0;orthogonalLoop=1;jettySize=auto;html=1;entryX=1;entryY=0.5;entryDx=0;entryDy=0;startArrow=ERmany;startFill=0;endArrow=open;endFill=0;" edge="1" parent="1" source="ZM6D0XeaFgW-7zV3yJDG-57" target="ZM6D0XeaFgW-7zV3yJDG-70">
          <mxGeometry relative="1" as="geometry">
            <Array as="points">
              <mxPoint x="3580" y="2417.32" />
            </Array>
          </mxGeometry>
        </mxCell>
        <mxCell id="ZM6D0XeaFgW-7zV3yJDG-75" style="edgeStyle=orthogonalEdgeStyle;rounded=0;orthogonalLoop=1;jettySize=auto;html=1;entryX=0;entryY=0.5;entryDx=0;entryDy=0;startArrow=ERmany;startFill=0;endArrow=open;endFill=0;" edge="1" parent="1" source="ZM6D0XeaFgW-7zV3yJDG-57" target="ZM6D0XeaFgW-7zV3yJDG-71">
          <mxGeometry relative="1" as="geometry">
            <Array as="points">
              <mxPoint x="3580" y="2417.32" />
            </Array>
          </mxGeometry>
        </mxCell>
        <mxCell id="ZM6D0XeaFgW-7zV3yJDG-57" value="restaurante" style="whiteSpace=wrap;html=1;rounded=1;arcSize=10;" vertex="1" parent="1">
          <mxGeometry x="3520" y="2160" width="120" height="60" as="geometry" />
        </mxCell>
        <mxCell id="ZM6D0XeaFgW-7zV3yJDG-60" style="edgeStyle=orthogonalEdgeStyle;rounded=0;orthogonalLoop=1;jettySize=auto;html=1;entryX=0.6;entryY=1.058;entryDx=0;entryDy=0;entryPerimeter=0;endArrow=ERmany;endFill=0;" edge="1" parent="1" source="ZM6D0XeaFgW-7zV3yJDG-55">
          <mxGeometry relative="1" as="geometry">
            <mxPoint x="2940" y="1270" as="targetPoint" />
          </mxGeometry>
        </mxCell>
        <mxCell id="ZM6D0XeaFgW-7zV3yJDG-65" style="edgeStyle=orthogonalEdgeStyle;rounded=0;orthogonalLoop=1;jettySize=auto;html=1;entryX=0;entryY=0.75;entryDx=0;entryDy=0;endArrow=ERmany;endFill=0;" edge="1" parent="1" source="ZM6D0XeaFgW-7zV3yJDG-63" target="ZM6D0XeaFgW-7zV3yJDG-9">
          <mxGeometry relative="1" as="geometry" />
        </mxCell>
        <mxCell id="ZM6D0XeaFgW-7zV3yJDG-63" value="Possui" style="rhombus;whiteSpace=wrap;html=1;rounded=1;arcSize=10;" vertex="1" parent="1">
          <mxGeometry x="3190" y="1497.68" width="80" height="80" as="geometry" />
        </mxCell>
        <mxCell id="ZM6D0XeaFgW-7zV3yJDG-66" value="codigo do restaurante" style="ellipse;whiteSpace=wrap;html=1;rounded=1;arcSize=10;" vertex="1" parent="1">
          <mxGeometry x="3370" y="2282.32" width="120" height="50" as="geometry" />
        </mxCell>
        <mxCell id="ZM6D0XeaFgW-7zV3yJDG-69" value="tipo do restaurante" style="ellipse;whiteSpace=wrap;html=1;rounded=1;arcSize=10;" vertex="1" parent="1">
          <mxGeometry x="3660" y="2282.32" width="120" height="50" as="geometry" />
        </mxCell>
        <mxCell id="ZM6D0XeaFgW-7zV3yJDG-70" value="nome do restaurante" style="ellipse;whiteSpace=wrap;html=1;rounded=1;arcSize=10;" vertex="1" parent="1">
          <mxGeometry x="3370" y="2392.32" width="120" height="50" as="geometry" />
        </mxCell>
        <mxCell id="ZM6D0XeaFgW-7zV3yJDG-71" value="endereço do restaurante" style="ellipse;whiteSpace=wrap;html=1;rounded=1;arcSize=10;" vertex="1" parent="1">
          <mxGeometry x="3670" y="2392.32" width="120" height="50" as="geometry" />
        </mxCell>
        <mxCell id="ZM6D0XeaFgW-7zV3yJDG-72" style="edgeStyle=orthogonalEdgeStyle;rounded=0;orthogonalLoop=1;jettySize=auto;html=1;exitX=0.5;exitY=1;exitDx=0;exitDy=0;" edge="1" parent="1" source="ZM6D0XeaFgW-7zV3yJDG-69" target="ZM6D0XeaFgW-7zV3yJDG-69">
          <mxGeometry relative="1" as="geometry" />
        </mxCell>
        <mxCell id="ZM6D0XeaFgW-7zV3yJDG-80" value="" style="edgeStyle=orthogonalEdgeStyle;rounded=0;orthogonalLoop=1;jettySize=auto;html=1;endArrow=none;endFill=0;startArrow=ERmany;startFill=0;" edge="1" parent="1" source="ZM6D0XeaFgW-7zV3yJDG-76" target="ZM6D0XeaFgW-7zV3yJDG-79">
          <mxGeometry relative="1" as="geometry" />
        </mxCell>
        <mxCell id="ZM6D0XeaFgW-7zV3yJDG-88" value="" style="edgeStyle=orthogonalEdgeStyle;rounded=0;orthogonalLoop=1;jettySize=auto;html=1;startArrow=ERmany;startFill=0;endArrow=open;endFill=0;" edge="1" parent="1" source="ZM6D0XeaFgW-7zV3yJDG-76" target="ZM6D0XeaFgW-7zV3yJDG-87">
          <mxGeometry relative="1" as="geometry" />
        </mxCell>
        <mxCell id="ZM6D0XeaFgW-7zV3yJDG-90" style="edgeStyle=orthogonalEdgeStyle;rounded=0;orthogonalLoop=1;jettySize=auto;html=1;entryX=0.5;entryY=1;entryDx=0;entryDy=0;startArrow=ERmany;startFill=0;endArrow=open;endFill=0;" edge="1" parent="1" source="ZM6D0XeaFgW-7zV3yJDG-76" target="ZM6D0XeaFgW-7zV3yJDG-89">
          <mxGeometry relative="1" as="geometry" />
        </mxCell>
        <mxCell id="ZM6D0XeaFgW-7zV3yJDG-92" value="" style="edgeStyle=orthogonalEdgeStyle;rounded=0;orthogonalLoop=1;jettySize=auto;html=1;endArrow=open;endFill=0;startArrow=ERmany;startFill=0;entryX=0.5;entryY=0;entryDx=0;entryDy=0;" edge="1" parent="1" target="ZM6D0XeaFgW-7zV3yJDG-93">
          <mxGeometry relative="1" as="geometry">
            <mxPoint x="2270" y="1029.5" as="sourcePoint" />
            <mxPoint x="2270" y="1097.1800000000003" as="targetPoint" />
          </mxGeometry>
        </mxCell>
        <mxCell id="ZM6D0XeaFgW-7zV3yJDG-76" value="igreja" style="whiteSpace=wrap;html=1;rounded=1;arcSize=10;" vertex="1" parent="1">
          <mxGeometry x="2210" y="967.1800000000001" width="120" height="60" as="geometry" />
        </mxCell>
        <mxCell id="ZM6D0XeaFgW-7zV3yJDG-82" value="" style="edgeStyle=orthogonalEdgeStyle;rounded=0;orthogonalLoop=1;jettySize=auto;html=1;endArrow=open;endFill=0;" edge="1" parent="1" target="ZM6D0XeaFgW-7zV3yJDG-81">
          <mxGeometry relative="1" as="geometry">
            <mxPoint x="2270" y="816.6800000000001" as="sourcePoint" />
          </mxGeometry>
        </mxCell>
        <mxCell id="ZM6D0XeaFgW-7zV3yJDG-86" value="" style="edgeStyle=orthogonalEdgeStyle;rounded=0;orthogonalLoop=1;jettySize=auto;html=1;endArrow=open;endFill=0;" edge="1" parent="1" target="ZM6D0XeaFgW-7zV3yJDG-85">
          <mxGeometry relative="1" as="geometry">
            <mxPoint x="2270" y="816.6800000000001" as="sourcePoint" />
          </mxGeometry>
        </mxCell>
        <mxCell id="ZM6D0XeaFgW-7zV3yJDG-79" value="Possui" style="rhombus;whiteSpace=wrap;html=1;rounded=1;arcSize=10;" vertex="1" parent="1">
          <mxGeometry x="2230" y="817.1800000000001" width="80" height="80" as="geometry" />
        </mxCell>
        <mxCell id="ZM6D0XeaFgW-7zV3yJDG-81" value="endereço" style="whiteSpace=wrap;html=1;rounded=1;arcSize=10;" vertex="1" parent="1">
          <mxGeometry x="2120" y="674" width="120" height="60" as="geometry" />
        </mxCell>
        <mxCell id="ZM6D0XeaFgW-7zV3yJDG-85" value="caracteristicas" style="whiteSpace=wrap;html=1;rounded=1;arcSize=10;" vertex="1" parent="1">
          <mxGeometry x="2310" y="674" width="120" height="60" as="geometry" />
        </mxCell>
        <mxCell id="ZM6D0XeaFgW-7zV3yJDG-87" value="estilo da construçao" style="ellipse;whiteSpace=wrap;html=1;rounded=1;arcSize=10;" vertex="1" parent="1">
          <mxGeometry x="1930" y="1059.5" width="120" height="50" as="geometry" />
        </mxCell>
        <mxCell id="ZM6D0XeaFgW-7zV3yJDG-89" value="data da construçao" style="ellipse;whiteSpace=wrap;html=1;rounded=1;arcSize=10;" vertex="1" parent="1">
          <mxGeometry x="1930" y="879.5" width="120" height="50" as="geometry" />
        </mxCell>
        <mxCell id="ZM6D0XeaFgW-7zV3yJDG-93" value="codigo da igreja" style="ellipse;whiteSpace=wrap;html=1;rounded=1;arcSize=10;" vertex="1" parent="1">
          <mxGeometry x="2210" y="1140" width="120" height="50" as="geometry" />
        </mxCell>
        <mxCell id="ZM6D0XeaFgW-7zV3yJDG-99" style="edgeStyle=orthogonalEdgeStyle;rounded=0;orthogonalLoop=1;jettySize=auto;html=1;entryX=1;entryY=0.5;entryDx=0;entryDy=0;exitX=0;exitY=0.5;exitDx=0;exitDy=0;startArrow=none;startFill=0;endArrow=ERmany;endFill=0;" edge="1" parent="1" source="ZM6D0XeaFgW-7zV3yJDG-55" target="ZM6D0XeaFgW-7zV3yJDG-76">
          <mxGeometry relative="1" as="geometry">
            <mxPoint x="2420" y="1219.5" as="sourcePoint" />
            <Array as="points">
              <mxPoint x="2620" y="1418" />
              <mxPoint x="2620" y="997" />
            </Array>
          </mxGeometry>
        </mxCell>
        <mxCell id="ZM6D0XeaFgW-7zV3yJDG-123" value="" style="edgeStyle=orthogonalEdgeStyle;rounded=0;orthogonalLoop=1;jettySize=auto;html=1;endArrow=none;endFill=0;startArrow=ERmany;startFill=0;" edge="1" parent="1" source="ZM6D0XeaFgW-7zV3yJDG-124" target="ZM6D0XeaFgW-7zV3yJDG-127">
          <mxGeometry relative="1" as="geometry" />
        </mxCell>
        <mxCell id="ZM6D0XeaFgW-7zV3yJDG-135" value="" style="edgeStyle=orthogonalEdgeStyle;rounded=0;orthogonalLoop=1;jettySize=auto;html=1;startArrow=ERmany;startFill=0;endArrow=open;endFill=0;entryX=0.5;entryY=0;entryDx=0;entryDy=0;" edge="1" parent="1" source="ZM6D0XeaFgW-7zV3yJDG-124" target="ZM6D0XeaFgW-7zV3yJDG-134">
          <mxGeometry relative="1" as="geometry">
            <Array as="points">
              <mxPoint x="2350" y="2030" />
              <mxPoint x="2350" y="2030" />
            </Array>
          </mxGeometry>
        </mxCell>
        <mxCell id="ZM6D0XeaFgW-7zV3yJDG-137" style="edgeStyle=orthogonalEdgeStyle;rounded=0;orthogonalLoop=1;jettySize=auto;html=1;startArrow=ERmany;startFill=0;endArrow=open;endFill=0;" edge="1" parent="1" source="ZM6D0XeaFgW-7zV3yJDG-124" target="ZM6D0XeaFgW-7zV3yJDG-136">
          <mxGeometry relative="1" as="geometry" />
        </mxCell>
        <mxCell id="ZM6D0XeaFgW-7zV3yJDG-124" value="museu" style="whiteSpace=wrap;html=1;rounded=1;arcSize=10;" vertex="1" parent="1">
          <mxGeometry x="2330" y="1737.68" width="120" height="60" as="geometry" />
        </mxCell>
        <mxCell id="ZM6D0XeaFgW-7zV3yJDG-125" value="" style="edgeStyle=orthogonalEdgeStyle;rounded=0;orthogonalLoop=1;jettySize=auto;html=1;endArrow=open;endFill=0;" edge="1" parent="1" source="ZM6D0XeaFgW-7zV3yJDG-127" target="ZM6D0XeaFgW-7zV3yJDG-132">
          <mxGeometry relative="1" as="geometry" />
        </mxCell>
        <mxCell id="ZM6D0XeaFgW-7zV3yJDG-126" value="" style="edgeStyle=orthogonalEdgeStyle;rounded=0;orthogonalLoop=1;jettySize=auto;html=1;endArrow=open;endFill=0;" edge="1" parent="1" source="ZM6D0XeaFgW-7zV3yJDG-127" target="ZM6D0XeaFgW-7zV3yJDG-133">
          <mxGeometry relative="1" as="geometry" />
        </mxCell>
        <mxCell id="ZM6D0XeaFgW-7zV3yJDG-140" value="" style="edgeStyle=orthogonalEdgeStyle;rounded=0;orthogonalLoop=1;jettySize=auto;html=1;endArrow=ERmany;endFill=0;" edge="1" parent="1" source="ZM6D0XeaFgW-7zV3yJDG-127" target="ZM6D0XeaFgW-7zV3yJDG-139">
          <mxGeometry relative="1" as="geometry" />
        </mxCell>
        <mxCell id="ZM6D0XeaFgW-7zV3yJDG-127" value="possui" style="rhombus;whiteSpace=wrap;html=1;rounded=1;arcSize=10;" vertex="1" parent="1">
          <mxGeometry x="2150" y="1727.68" width="80" height="80" as="geometry" />
        </mxCell>
        <mxCell id="ZM6D0XeaFgW-7zV3yJDG-132" value="descriçao" style="whiteSpace=wrap;html=1;rounded=1;arcSize=10;" vertex="1" parent="1">
          <mxGeometry x="1940" y="1620" width="120" height="60" as="geometry" />
        </mxCell>
        <mxCell id="ZM6D0XeaFgW-7zV3yJDG-133" value="endereço" style="whiteSpace=wrap;html=1;rounded=1;arcSize=10;" vertex="1" parent="1">
          <mxGeometry x="1940" y="1867.68" width="120" height="60" as="geometry" />
        </mxCell>
        <mxCell id="ZM6D0XeaFgW-7zV3yJDG-134" value="numero de salas" style="ellipse;whiteSpace=wrap;html=1;rounded=1;arcSize=10;" vertex="1" parent="1">
          <mxGeometry x="2290" y="2050" width="120" height="50" as="geometry" />
        </mxCell>
        <mxCell id="ZM6D0XeaFgW-7zV3yJDG-136" value="data de fundaçao" style="ellipse;whiteSpace=wrap;html=1;rounded=1;arcSize=10;" vertex="1" parent="1">
          <mxGeometry x="2390" y="1970" width="120" height="50" as="geometry" />
        </mxCell>
        <mxCell id="ZM6D0XeaFgW-7zV3yJDG-147" style="edgeStyle=orthogonalEdgeStyle;rounded=0;orthogonalLoop=1;jettySize=auto;html=1;endArrow=ERmany;endFill=0;startArrow=ERmany;startFill=0;" edge="1" parent="1" source="ZM6D0XeaFgW-7zV3yJDG-139" target="ZM6D0XeaFgW-7zV3yJDG-145">
          <mxGeometry relative="1" as="geometry" />
        </mxCell>
        <mxCell id="ZM6D0XeaFgW-7zV3yJDG-150" style="edgeStyle=orthogonalEdgeStyle;rounded=0;orthogonalLoop=1;jettySize=auto;html=1;entryX=1;entryY=0.5;entryDx=0;entryDy=0;startArrow=ERmany;startFill=0;endArrow=open;endFill=0;" edge="1" parent="1" source="ZM6D0XeaFgW-7zV3yJDG-139" target="ZM6D0XeaFgW-7zV3yJDG-144">
          <mxGeometry relative="1" as="geometry" />
        </mxCell>
        <mxCell id="ZM6D0XeaFgW-7zV3yJDG-139" value="fundadores" style="whiteSpace=wrap;html=1;rounded=1;arcSize=10;" vertex="1" parent="1">
          <mxGeometry x="2050" y="2030" width="120" height="60" as="geometry" />
        </mxCell>
        <mxCell id="ZM6D0XeaFgW-7zV3yJDG-141" value="data nascimento" style="ellipse;whiteSpace=wrap;html=1;rounded=1;arcSize=10;" vertex="1" parent="1">
          <mxGeometry x="1800" y="2150" width="120" height="50" as="geometry" />
        </mxCell>
        <mxCell id="ZM6D0XeaFgW-7zV3yJDG-142" value="data morte" style="ellipse;whiteSpace=wrap;html=1;rounded=1;arcSize=10;" vertex="1" parent="1">
          <mxGeometry x="1870" y="2250" width="120" height="50" as="geometry" />
        </mxCell>
        <mxCell id="ZM6D0XeaFgW-7zV3yJDG-146" style="edgeStyle=orthogonalEdgeStyle;rounded=0;orthogonalLoop=1;jettySize=auto;html=1;entryX=0.75;entryY=1;entryDx=0;entryDy=0;endArrow=ERmany;endFill=0;startArrow=ERmany;startFill=0;" edge="1" parent="1" source="ZM6D0XeaFgW-7zV3yJDG-143" target="ZM6D0XeaFgW-7zV3yJDG-139">
          <mxGeometry relative="1" as="geometry" />
        </mxCell>
        <mxCell id="ZM6D0XeaFgW-7zV3yJDG-143" value="atividades proficionais" style="ellipse;whiteSpace=wrap;html=1;rounded=1;arcSize=10;" vertex="1" parent="1">
          <mxGeometry x="2200" y="2290" width="120" height="50" as="geometry" />
        </mxCell>
        <mxCell id="ZM6D0XeaFgW-7zV3yJDG-144" value="nome do fundador" style="ellipse;whiteSpace=wrap;html=1;rounded=1;arcSize=10;" vertex="1" parent="1">
          <mxGeometry x="1790" y="2010" width="120" height="50" as="geometry" />
        </mxCell>
        <mxCell id="ZM6D0XeaFgW-7zV3yJDG-145" value="nacionalidade" style="ellipse;whiteSpace=wrap;html=1;rounded=1;arcSize=10;" vertex="1" parent="1">
          <mxGeometry x="2050" y="2340" width="120" height="50" as="geometry" />
        </mxCell>
        <mxCell id="ZM6D0XeaFgW-7zV3yJDG-148" style="edgeStyle=orthogonalEdgeStyle;rounded=0;orthogonalLoop=1;jettySize=auto;html=1;entryX=1;entryY=0.5;entryDx=0;entryDy=0;endArrow=open;endFill=0;startArrow=ERmany;startFill=0;" edge="1" parent="1" source="ZM6D0XeaFgW-7zV3yJDG-139" target="ZM6D0XeaFgW-7zV3yJDG-142">
          <mxGeometry relative="1" as="geometry">
            <Array as="points">
              <mxPoint x="2080" y="2275" />
            </Array>
          </mxGeometry>
        </mxCell>
        <mxCell id="ZM6D0XeaFgW-7zV3yJDG-149" style="edgeStyle=orthogonalEdgeStyle;rounded=0;orthogonalLoop=1;jettySize=auto;html=1;entryX=1;entryY=0.5;entryDx=0;entryDy=0;endArrow=open;endFill=0;startArrow=ERmany;startFill=0;exitX=0;exitY=0.75;exitDx=0;exitDy=0;" edge="1" parent="1" source="ZM6D0XeaFgW-7zV3yJDG-139" target="ZM6D0XeaFgW-7zV3yJDG-141">
          <mxGeometry relative="1" as="geometry">
            <mxPoint x="2090" y="2100" as="sourcePoint" />
            <mxPoint x="2000" y="2285" as="targetPoint" />
            <Array as="points">
              <mxPoint x="2010" y="2075" />
              <mxPoint x="2010" y="2180" />
              <mxPoint x="1920" y="2180" />
            </Array>
          </mxGeometry>
        </mxCell>
        <mxCell id="ZM6D0XeaFgW-7zV3yJDG-152" style="edgeStyle=orthogonalEdgeStyle;rounded=0;orthogonalLoop=1;jettySize=auto;html=1;entryX=0.75;entryY=1;entryDx=0;entryDy=0;startArrow=open;startFill=0;endArrow=ERmany;endFill=0;" edge="1" parent="1" source="ZM6D0XeaFgW-7zV3yJDG-151" target="ZM6D0XeaFgW-7zV3yJDG-139">
          <mxGeometry relative="1" as="geometry" />
        </mxCell>
        <mxCell id="ZM6D0XeaFgW-7zV3yJDG-151" value="codigo do fundador" style="ellipse;whiteSpace=wrap;html=1;rounded=1;arcSize=10;" vertex="1" parent="1">
          <mxGeometry x="2200" y="2170" width="120" height="50" as="geometry" />
        </mxCell>
        <mxCell id="ZM6D0XeaFgW-7zV3yJDG-169" value="" style="edgeStyle=orthogonalEdgeStyle;rounded=0;orthogonalLoop=1;jettySize=auto;html=1;endArrow=none;endFill=0;startArrow=ERmany;startFill=0;" edge="1" parent="1" source="ZM6D0XeaFgW-7zV3yJDG-170" target="ZM6D0XeaFgW-7zV3yJDG-173">
          <mxGeometry relative="1" as="geometry" />
        </mxCell>
        <mxCell id="ZM6D0XeaFgW-7zV3yJDG-183" value="" style="edgeStyle=orthogonalEdgeStyle;rounded=0;orthogonalLoop=1;jettySize=auto;html=1;startArrow=ERmany;startFill=0;endArrow=none;endFill=0;" edge="1" parent="1" source="ZM6D0XeaFgW-7zV3yJDG-170" target="ZM6D0XeaFgW-7zV3yJDG-182">
          <mxGeometry relative="1" as="geometry" />
        </mxCell>
        <mxCell id="ZM6D0XeaFgW-7zV3yJDG-170" value="casa de show" style="whiteSpace=wrap;html=1;rounded=1;arcSize=10;" vertex="1" parent="1">
          <mxGeometry x="3030" y="2158.84" width="120" height="60" as="geometry" />
        </mxCell>
        <mxCell id="ZM6D0XeaFgW-7zV3yJDG-171" value="" style="edgeStyle=orthogonalEdgeStyle;rounded=0;orthogonalLoop=1;jettySize=auto;html=1;endArrow=open;endFill=0;" edge="1" parent="1" source="ZM6D0XeaFgW-7zV3yJDG-173" target="ZM6D0XeaFgW-7zV3yJDG-178">
          <mxGeometry relative="1" as="geometry" />
        </mxCell>
        <mxCell id="ZM6D0XeaFgW-7zV3yJDG-172" value="" style="edgeStyle=orthogonalEdgeStyle;rounded=0;orthogonalLoop=1;jettySize=auto;html=1;endArrow=open;endFill=0;" edge="1" parent="1" source="ZM6D0XeaFgW-7zV3yJDG-173" target="ZM6D0XeaFgW-7zV3yJDG-179">
          <mxGeometry relative="1" as="geometry" />
        </mxCell>
        <mxCell id="ZM6D0XeaFgW-7zV3yJDG-173" value="possui" style="rhombus;whiteSpace=wrap;html=1;rounded=1;arcSize=10;" vertex="1" parent="1">
          <mxGeometry x="2850" y="2148.84" width="80" height="80" as="geometry" />
        </mxCell>
        <mxCell id="ZM6D0XeaFgW-7zV3yJDG-174" style="edgeStyle=orthogonalEdgeStyle;rounded=0;orthogonalLoop=1;jettySize=auto;html=1;entryX=0.5;entryY=0;entryDx=0;entryDy=0;endArrow=ERmany;endFill=0;startArrow=ERmany;startFill=0;" edge="1" parent="1" source="ZM6D0XeaFgW-7zV3yJDG-175" target="ZM6D0XeaFgW-7zV3yJDG-170">
          <mxGeometry relative="1" as="geometry" />
        </mxCell>
        <mxCell id="ZM6D0XeaFgW-7zV3yJDG-175" value="Horario de abertura" style="ellipse;whiteSpace=wrap;html=1;rounded=1;arcSize=10;" vertex="1" parent="1">
          <mxGeometry x="3030" y="2034.9999999999998" width="120" height="50" as="geometry" />
        </mxCell>
        <mxCell id="ZM6D0XeaFgW-7zV3yJDG-176" value="dias de fechamento" style="ellipse;whiteSpace=wrap;html=1;rounded=1;arcSize=10;" vertex="1" parent="1">
          <mxGeometry x="3210" y="2034.9999999999998" width="120" height="50" as="geometry" />
        </mxCell>
        <mxCell id="ZM6D0XeaFgW-7zV3yJDG-177" style="edgeStyle=orthogonalEdgeStyle;rounded=0;orthogonalLoop=1;jettySize=auto;html=1;entryX=0.5;entryY=0;entryDx=0;entryDy=0;endArrow=ERmany;endFill=0;startArrow=ERmany;startFill=0;exitX=0.5;exitY=1;exitDx=0;exitDy=0;" edge="1" parent="1" source="ZM6D0XeaFgW-7zV3yJDG-176" target="ZM6D0XeaFgW-7zV3yJDG-170">
          <mxGeometry relative="1" as="geometry">
            <mxPoint x="3010" y="2111.16" as="sourcePoint" />
            <mxPoint x="3100" y="2169.16" as="targetPoint" />
          </mxGeometry>
        </mxCell>
        <mxCell id="ZM6D0XeaFgW-7zV3yJDG-178" value="descriçao" style="whiteSpace=wrap;html=1;rounded=1;arcSize=10;" vertex="1" parent="1">
          <mxGeometry x="2640" y="2041.1599999999999" width="120" height="60" as="geometry" />
        </mxCell>
        <mxCell id="ZM6D0XeaFgW-7zV3yJDG-179" value="endereço" style="whiteSpace=wrap;html=1;rounded=1;arcSize=10;" vertex="1" parent="1">
          <mxGeometry x="2640" y="2288.84" width="120" height="60" as="geometry" />
        </mxCell>
        <mxCell id="ZM6D0XeaFgW-7zV3yJDG-180" style="edgeStyle=orthogonalEdgeStyle;rounded=0;orthogonalLoop=1;jettySize=auto;html=1;entryX=0.5;entryY=1;entryDx=0;entryDy=0;startArrow=open;startFill=0;endArrow=ERmany;endFill=0;" edge="1" parent="1" source="ZM6D0XeaFgW-7zV3yJDG-181" target="ZM6D0XeaFgW-7zV3yJDG-170">
          <mxGeometry relative="1" as="geometry" />
        </mxCell>
        <mxCell id="ZM6D0XeaFgW-7zV3yJDG-181" value="codigo da casa de show" style="ellipse;whiteSpace=wrap;html=1;rounded=1;arcSize=10;" vertex="1" parent="1">
          <mxGeometry x="3030" y="2276.16" width="120" height="50" as="geometry" />
        </mxCell>
        <mxCell id="ZM6D0XeaFgW-7zV3yJDG-184" style="edgeStyle=orthogonalEdgeStyle;rounded=0;orthogonalLoop=1;jettySize=auto;html=1;endArrow=open;endFill=0;" edge="1" parent="1" source="ZM6D0XeaFgW-7zV3yJDG-182" target="ZM6D0XeaFgW-7zV3yJDG-57">
          <mxGeometry relative="1" as="geometry" />
        </mxCell>
        <mxCell id="ZM6D0XeaFgW-7zV3yJDG-182" value="possui" style="rhombus;whiteSpace=wrap;html=1;rounded=1;arcSize=10;" vertex="1" parent="1">
          <mxGeometry x="3250" y="2148.84" width="80" height="80" as="geometry" />
        </mxCell>
      </root>
    </mxGraphModel>
  </diagram>
</mxfile>
